<svg xmlns="http://www.w3.org/2000/svg" xmlns:se="http://svg-edit.googlecode.com" xmlns:xlink="http://www.w3.org/1999/xlink" xmlns:dc="http://purl.org/dc/elements/1.1/" xmlns:cc="http://creativecommons.org/ns#" xmlns:rdf="http://www.w3.org/1999/02/22-rdf-syntax-ns#" xmlns:inkscape="http://www.inkscape.org/namespaces/inkscape" width="100" height="100" style="">                                                                       <!-- Created with Vector Paint - http://www.vectorpaint.yaks.com/ https://chrome.google.com/webstore/detail/hnbpdiengicdefcjecjbnjnoifekhgdo -->                                    <rect id="backgroundrect" width="100%" height="100%" x="0" y="0" fill="#000000" stroke="none" style="" class="" opacity="0" fill-opacity="1"/>                                <g class="currentLayer" style=""><g class="selected"><path fill="#000000" fill-opacity="1" stroke="#000000" stroke-opacity="1" stroke-width="2" stroke-dasharray="none" stroke-linejoin="round" stroke-linecap="butt" stroke-dashoffset="" fill-rule="nonzero" opacity="1" marker-start="" marker-mid="" marker-end="" d="M69.68394272246344,75.54948815194616 L93.17093214430648,98.18587989282695 " class="" id="svg_7"/><path fill="#ad2121" fill-opacity="1" stroke="#000000" stroke-opacity="1" stroke-width="0.8" stroke-dasharray="none" stroke-linejoin="round" stroke-linecap="butt" stroke-dashoffset="" fill-rule="nonzero" opacity="1" marker-start="" marker-mid="" marker-end="" id="svg_12" d="M36.96987634474,68.55499678100655 L36.74188221131929,28.980122163762417 L49.73707381123165,45.477209278612555 L65.4998466163121,13.006130958536952 L65.67377341779175,95.69851275912127 C65.70064149884114,95.75177535209662 55.21831628381342,85.52529531345364 55.21831628381342,85.52529531345364 C55.21831628381342,85.52529531345364 57.77358905430492,43.87744922009993 57.77358905430492,43.87744922009993 C57.77358905430492,43.87744922009993 50.31042511241419,60.47446152919273 50.283557031364744,60.42119893621746 C50.31042511241419,60.47446152919273 41.09621770420003,44.53382797001932 41.06934793065787,44.480562072940586 C41.09621770420003,44.53382797001932 41.14586742807911,72.38502608422081 41.118997563368346,72.33176333057474 C41.14586742807911,72.38502608422081 36.800740753758504,68.75562996505624 36.96987634474,68.55499678100655 z" style="color: rgb(0, 0, 0);" class=""/><path fill="#990000" fill-opacity="1" stroke="#000000" stroke-opacity="1" stroke-width="0.4" stroke-dasharray="none" stroke-linejoin="round" stroke-linecap="butt" stroke-dashoffset="" fill-rule="nonzero" opacity="1" marker-start="" marker-mid="" marker-end="" id="svg_21" d="M25.891443887803778,55.445277361789834 L24.78336711462198,58.03047826502523 L29.092850607917587,59.638345643086566 L32.75148414583147,51.52508016887483 L27.386549912901508,49.74229339818805 L27.92422073086446,46.29533884299526 L32.24945289151788,43.500203753901715 C32.26215525877703,43.49963317793305 33.16191296511078,40.668812707731725 33.15527784481696,40.6387817157385 C33.14864272452308,40.60875072374523 24.35220491430596,45.53833713153548 24.339502547046784,45.538907707504144 C24.35220491430596,45.53833713153548 25.06062930752975,51.17360826011608 25.04792667906347,51.1741795202595 C25.06062930752975,51.17360826011608 29.726986652566886,53.88536643297694 29.726986652566886,53.88536643297694 C29.726986652566886,53.88536643297694 28.59523898593495,56.94455105633209 28.58253671554868,56.94512207075412 C28.59523898593495,56.94455105633209 25.869998319122463,55.390825441918274 25.891443887803778,55.445277361789834 z" style="color: rgb(0, 0, 0);" class="" transform="rotate(8.281841278076172 28.747409820556648,50.138496398925774) "/><path fill="#000000" fill-opacity="0" stroke="#000000" stroke-opacity="1" stroke-width="1" stroke-dasharray="none" stroke-linejoin="round" stroke-linecap="butt" stroke-dashoffset="" fill-rule="nonzero" opacity="1" marker-start="" marker-mid="" marker-end="" id="svg_24" d="M20.495113758330454,50.1904350330362 L22.93186579694756,34.14128457115087 L33.1888535994678,30.09028608979697 " style="color: rgb(0, 0, 0);" class=""/><path fill="#000000" fill-opacity="0" stroke="#000000" stroke-opacity="1" stroke-width="1" stroke-dasharray="none" stroke-linejoin="round" stroke-linecap="butt" stroke-dashoffset="" fill-rule="nonzero" opacity="1" marker-start="" marker-mid="" marker-end="" id="svg_1" d="M11.659491053065663,51.566421995191774 C11.659491053065663,51.566421995191774 16.185629523092985,24.402754049489587 16.157253629298907,24.342398786891838 C16.185629523092985,24.402754049489587 34.412511469959824,14.701444068881624 34.412511469959824,14.701444068881624 " style="color: rgb(0, 0, 0);" class=""/><path fill="#000000" fill-opacity="0" stroke="#000000" stroke-opacity="1" stroke-width="1" stroke-dasharray="none" stroke-linejoin="round" stroke-linecap="butt" stroke-dashoffset="" fill-rule="nonzero" opacity="1" marker-start="" marker-mid="" marker-end="" id="svg_3" d="M1.6949151754379272,53.92737816409072 C1.6949151754379272,53.92737816409072 9.363241474055116,16.45556968711284 9.363241474055116,16.45556968711284 C9.363241474055116,16.45556968711284 35.946772642594766,0.6779661178588867 35.946772642594766,0.6779661178588867 " style="color: rgb(0, 0, 0);" class=""/><path fill="#000000" fill-opacity="1" stroke="#000000" stroke-opacity="1" stroke-width="2" stroke-dasharray="none" stroke-linejoin="round" stroke-linecap="butt" stroke-dashoffset="" fill-rule="nonzero" opacity="1" marker-start="" marker-mid="" marker-end="" d="M69.72699891434759,32.337699770560945 L92.84700112537826,9.270140483337618 " id="svg_5" class=""/><path fill="#000000" fill-opacity="1" stroke="#000000" stroke-opacity="1" stroke-width="2" stroke-dasharray="none" stroke-linejoin="round" stroke-linecap="butt" stroke-dashoffset="" fill-rule="nonzero" opacity="1" marker-start="" marker-mid="" marker-end="" d="M70.58329453798909,53.46499703551243 L98.84107795897057,53.46499703551243 " id="svg_8" class=""/></g></g></svg>