<svg xmlns="http://www.w3.org/2000/svg" xmlns:se="http://svg-edit.googlecode.com" xmlns:xlink="http://www.w3.org/1999/xlink" xmlns:dc="http://purl.org/dc/elements/1.1/" xmlns:cc="http://creativecommons.org/ns#" xmlns:rdf="http://www.w3.org/1999/02/22-rdf-syntax-ns#" xmlns:inkscape="http://www.inkscape.org/namespaces/inkscape" width="560" height="320" style="">                                                                        <!-- Created with Vector Paint - http://www.vectorpaint.yaks.com/ https://chrome.google.com/webstore/detail/hnbpdiengicdefcjecjbnjnoifekhgdo -->                                    <rect id="backgroundrect" width="100%" height="100%" x="0" y="0" fill="#000000" stroke="none" style="" class="" opacity="0" fill-opacity="1"/>                                <g class="currentLayer" style=""><g class="selected"><path fill="#000000" fill-opacity="1" stroke="#000000" stroke-opacity="1" stroke-width="5" stroke-dasharray="none" stroke-linejoin="round" stroke-linecap="butt" stroke-dashoffset="" fill-rule="nonzero" opacity="1" marker-start="" marker-mid="" marker-end="" d="M391.1698760567916,241.02738373329566 L522.676725319981,312.9451957480892 " class="" id="svg_7"/><path fill="#ad2121" fill-opacity="1" stroke="#000000" stroke-opacity="1" stroke-width="5" stroke-dasharray="none" stroke-linejoin="round" stroke-linecap="butt" stroke-dashoffset="" fill-rule="nonzero" opacity="1" marker-start="" marker-mid="" marker-end="" id="svg_12" d="M208.53422024393376,222.88736792570353 L200.84109024393388,97.38358792570355 L276.1835602439338,146.01371792570353 L359.0602702439338,38.47947792570352 L373.4438302439338,300.80823792570357 C373.60271024393376,300.96955792570355 313.3287402439338,271.5175079257035 313.3287402439338,271.5175079257035 C313.3287402439338,271.5175079257035 320.86299024393384,138.64079792570354 320.86299024393384,138.64079792570354 C320.86299024393384,138.64079792570354 281.8218902439338,193.43531792570354 281.66301024393374,193.2739979257035 C281.8218902439338,193.43531792570354 227.71231024393387,145.49011792570354 227.55342024393383,145.32878792570355 C227.71231024393387,145.49011792570354 232.5068302439338,233.84627792570353 232.34794024393386,233.68495792570354 C232.5068302439338,233.84627792570353 207.6209802439338,223.5723079257035 208.53422024393376,222.88736792570353 z" style="color: rgb(0, 0, 0);" class=""/><path fill="#990000" fill-opacity="1" stroke="#000000" stroke-opacity="1" stroke-width="3" stroke-dasharray="none" stroke-linejoin="round" stroke-linecap="butt" stroke-dashoffset="" fill-rule="nonzero" opacity="1" marker-start="" marker-mid="" marker-end="" id="svg_21" d="M141.93451393092585,169.23388162458508 L133.1728892376807,174.63638606902788 L153.80435708870925,188.15174128370916 L182.2463063391166,171.56471524471675 L156.30960531171047,155.3872445183631 L163.08851568526165,146.27461937870936 L188.87784727169674,146.7865635195078 C188.9447803744382,146.8106804214496 196.90263336635508,140.25778047042832 196.90263336635508,140.15539164226863 C196.90263336635508,140.053002814109 145.32396804191796,136.77655283859832 145.2570349391766,136.75243593665647 C145.32396804191796,136.77655283859832 142.5239852401088,154.89941428974618 142.45704998580027,154.87529888268455 C142.5239852401088,154.89941428974618 163.74492009718597,172.40794277193606 163.74492009718597,172.40794277193606 C163.74492009718597,172.40794277193606 154.31339205966242,179.16562037927662 154.24645895692106,179.141504972215 C154.31339205966242,179.16562037927662 141.88539150112456,169.02910396826576 141.93451393092585,169.23388162458508 z" style="color: rgb(0, 0, 0);" class="" transform="rotate(-19.030073165893555 165.03775024414062,162.45208740234378) "/><path fill="#000000" fill-opacity="0" stroke="#000000" stroke-opacity="1" stroke-width="2" stroke-dasharray="none" stroke-linejoin="round" stroke-linecap="butt" stroke-dashoffset="" fill-rule="nonzero" opacity="1" marker-start="" marker-mid="" marker-end="" id="svg_24" d="M111.95890583397488,162.6133946319871 L125.60261202716492,111.62382884220082 L183.03288223395214,98.7534495613865 " style="color: rgb(0, 0, 0);" class=""/><path fill="#000000" fill-opacity="0" stroke="#000000" stroke-opacity="1" stroke-width="2" stroke-dasharray="none" stroke-linejoin="round" stroke-linecap="butt" stroke-dashoffset="" fill-rule="nonzero" opacity="1" marker-start="" marker-mid="" marker-end="" id="svg_1" d="M60.589039921786394,165.383556520598 C60.589039921786394,165.383556520598 85.93150501306155,79.0821889124719 85.77262452306474,78.8904349227331 C85.93150501306155,79.0821889124719 187.9862968671154,48.260271909569724 187.9862968671154,48.260271909569724 " style="color: rgb(0, 0, 0);" class=""/><path fill="#000000" fill-opacity="0" stroke="#000000" stroke-opacity="1" stroke-width="2" stroke-dasharray="none" stroke-linejoin="round" stroke-linecap="butt" stroke-dashoffset="" fill-rule="nonzero" opacity="1" marker-start="" marker-mid="" marker-end="" id="svg_3" d="M0.9999999999999146,170.17807613848174 C0.9999999999999146,170.17807613848174 43.93600224962617,51.126837374365266 43.93600224962617,51.126837374365266 C43.93600224962617,51.126837374365266 192.78081004833035,1.000000000000398 192.78081004833035,1.000000000000398 " style="color: rgb(0, 0, 0);" class=""/><path fill="#000000" fill-opacity="1" stroke="#000000" stroke-opacity="1" stroke-width="5" stroke-dasharray="none" stroke-linejoin="round" stroke-linecap="butt" stroke-dashoffset="" fill-rule="nonzero" opacity="1" marker-start="" marker-mid="" marker-end="" d="M391.41095353310266,103.73972281942719 L520.8629914730094,30.45205350141535 " id="svg_5" class=""/><path fill="#000000" fill-opacity="1" stroke="#000000" stroke-opacity="1" stroke-width="5" stroke-dasharray="none" stroke-linejoin="round" stroke-linecap="butt" stroke-dashoffset="" fill-rule="nonzero" opacity="1" marker-start="" marker-mid="" marker-end="" d="M396.2054692320039,170.86300865377672 L554.4246431802349,170.86300865377672 " id="svg_8" class=""/></g></g></svg>