<svg xmlns="http://www.w3.org/2000/svg" xmlns:se="http://svg-edit.googlecode.com" xmlns:xlink="http://www.w3.org/1999/xlink" xmlns:dc="http://purl.org/dc/elements/1.1/" xmlns:cc="http://creativecommons.org/ns#" xmlns:rdf="http://www.w3.org/1999/02/22-rdf-syntax-ns#" xmlns:inkscape="http://www.inkscape.org/namespaces/inkscape" width="250" height="150" style="">                                                                        <!-- Created with Vector Paint - http://www.vectorpaint.yaks.com/ https://chrome.google.com/webstore/detail/hnbpdiengicdefcjecjbnjnoifekhgdo -->                                    <rect id="backgroundrect" width="100%" height="100%" x="0" y="0" fill="#000000" stroke="none" style="" class="selected" opacity="0" fill-opacity="1"/>                                <g class="currentLayer" style=""><g class="" opacity="1"><path fill="#000000" fill-opacity="1" stroke="#ffffff" stroke-opacity="1" stroke-width="5" stroke-dasharray="none" stroke-linejoin="round" stroke-linecap="butt" stroke-dashoffset="" fill-rule="nonzero" opacity="1" marker-start="" marker-mid="" marker-end="" d="M175.5679367225864,114.03990289711737 L234.74315143512786,148.20892216140777 " class="" id="svg_7"/><path fill="#ad2121" fill-opacity="1" stroke="#ffffff" stroke-opacity="1" stroke-width="3" stroke-dasharray="none" stroke-linejoin="round" stroke-linecap="butt" stroke-dashoffset="" fill-rule="nonzero" opacity="1" marker-start="" marker-mid="" marker-end="" id="svg_12" d="M93.93532448281566,105.42136275776149 L90.47358372853452,45.79300426878031 L124.3760524151688,68.89776513738329 L161.66876482061917,17.806951676942976 L168.14105319266648,142.44250722156409 C168.21254572834962,142.5191522978434 141.09057347891138,128.526128377485 141.09057347891138,128.526128377485 C141.09057347891138,128.526128377485 144.48082169750944,65.3948019846354 144.48082169750944,65.3948019846354 C144.48082169750944,65.3948019846354 126.91317797356781,91.42833883740309 126.84168543788464,91.35169376112374 C126.91317797356781,91.42833883740309 102.56504681199411,68.64899646679162 102.49354977652897,68.5723466393918 C102.56504681199411,68.64899646679162 104.72247626934319,110.62807297898736 104.6509792338781,110.55142790270803 C104.72247626934319,110.62807297898736 93.52438639566002,105.74678600687352 93.93532448281566,105.42136275776149 z" style="color: rgb(0, 0, 0);" class=""/><path fill="#ad2121" fill-opacity="1" stroke="#ffffff" stroke-opacity="1" stroke-width="1" stroke-dasharray="none" stroke-linejoin="round" stroke-linecap="butt" stroke-dashoffset="" fill-rule="nonzero" opacity="1" marker-start="" marker-mid="" marker-end="" id="svg_21" d="M63.41745824644774,79.92994476742899 L59.474918178319015,82.49673974166441 L68.75862885011936,88.91804789546615 L81.55688584711955,81.03735191229252 L69.88593592450312,73.35124059424287 L72.93629778108705,69.02172256217264 L84.54093466860009,69.26495339357757 C84.57105310538337,69.27641162435461 88.15191343384487,66.1630498800157 88.15191343384487,66.11440371373473 C88.15191343384487,66.06575754745376 64.9426386906606,64.5090766752843 64.91252025387735,64.49761844450724 C64.9426386906606,64.5090766752843 63.68270748238656,73.11946657314381 63.65258807744502,73.10800905260237 C63.68270748238656,73.11946657314381 73.23166545380913,81.43797947331747 73.23166545380913,81.43797947331747 C73.23166545380913,81.43797947331747 68.987683487738,84.64863355021828 68.95756505095476,84.63717602967684 C68.987683487738,84.64863355021828 63.39535422413272,79.83265243486704 63.41745824644774,79.92994476742899 z" style="color: rgb(0, 0, 0);" class="" transform="rotate(-19.057764053344727 73.81341552734372,76.70783233642575) "/><path fill="#000000" fill-opacity="0" stroke="#ffffff" stroke-opacity="1" stroke-width="2" stroke-dasharray="none" stroke-linejoin="round" stroke-linecap="butt" stroke-dashoffset="" fill-rule="nonzero" opacity="1" marker-start="" marker-mid="" marker-end="" id="svg_24" d="M49.929088209339824,76.78447160505675 L56.068458500548275,52.55871435606499 L81.91082784881293,46.443842041896026 " style="color: rgb(0, 0, 0);" class=""/><path fill="#000000" fill-opacity="0" stroke="#ffffff" stroke-opacity="1" stroke-width="2" stroke-dasharray="none" stroke-linejoin="round" stroke-linecap="butt" stroke-dashoffset="" fill-rule="nonzero" opacity="1" marker-start="" marker-mid="" marker-end="" id="svg_1" d="M26.813768648877147,78.10060890519708 C26.813768648877147,78.10060890519708 38.21732535731899,37.09778902338402 38.145832601147944,37.00668439177979 C38.21732535731899,37.09778902338402 84.13975642644962,22.45392477987935 84.13975642644962,22.45392477987935 " style="color: rgb(0, 0, 0);" class=""/><path fill="#000000" fill-opacity="0" stroke="#ffffff" stroke-opacity="1" stroke-width="2" stroke-dasharray="none" stroke-linejoin="round" stroke-linecap="butt" stroke-dashoffset="" fill-rule="nonzero" opacity="1" marker-start="" marker-mid="" marker-end="" id="svg_3" d="M0,80.37854296071016 C0,80.37854296071016 19.320264809439003,23.81586458095117 19.320264809439003,23.81586458095117 C19.320264809439003,23.81586458095117 86.29718281549412,0 86.29718281549412,0 " style="color: rgb(0, 0, 0);" class=""/><path fill="#000000" fill-opacity="1" stroke="#ffffff" stroke-opacity="1" stroke-width="5" stroke-dasharray="none" stroke-linejoin="round" stroke-linecap="butt" stroke-dashoffset="" fill-rule="nonzero" opacity="1" marker-start="" marker-mid="" marker-end="" d="M175.67641633032542,48.812880562922814 L233.9270107517544,13.993025583922842 " id="svg_5" class=""/><path fill="#000000" fill-opacity="1" stroke="#ffffff" stroke-opacity="1" stroke-width="5" stroke-dasharray="none" stroke-linejoin="round" stroke-linecap="butt" stroke-dashoffset="" fill-rule="nonzero" opacity="1" marker-start="" marker-mid="" marker-end="" d="M177.8338438522739,80.70396265374865 L249.0290222211944,80.70396265374865 " id="svg_8" class=""/></g></g></svg>